<svg xmlns="http://www.w3.org/2000/svg" viewBox="0 0 15.31 10.46"><defs><style>.cls-1{fill:#fff;stroke:#231f20;stroke-miterlimit:10;stroke-width:0.25px;}</style></defs><g id="Layer_2" data-name="Layer 2"><g id="Layer_1-2" data-name="Layer 1"><path class="cls-1" d="M15.19,3.76A5.69,5.69,0,0,1,12.83,8l1.63.32.34.7C14.37,9,13.74,9,12.92,9L10.44,9a10.92,10.92,0,0,0,1-2.22,8.52,8.52,0,0,0,.6-2.59c0-.47-.13-.71-.41-.71-.45,0-1,.47-1.51,1.4A10.38,10.38,0,0,0,9,7.43a7.39,7.39,0,0,0,.15,1.94l.87.36c0,.11-.12.3-.22.58C8.47,10,7.3,9.75,6.29,9.46A8.76,8.76,0,0,0,7,5.83c0-1.57-.27-2.35-.8-2.35q-.53,0-1,.93a7,7,0,0,0-.65,2.17A16.67,16.67,0,0,0,5,9.48,6,6,0,0,0,2.61,9a2.27,2.27,0,0,0-1.55.41L1,8a1,1,0,0,1,.54-.13A2.14,2.14,0,0,1,2.36,8a16,16,0,0,1-.61-2.81,21.1,21.1,0,0,1-.23-2.92V2.06c0-.33-.13-.52-.39-.58L.34,1.42C.2,1.4.13,1.1.13.54c0,0,0-.05.12-.05.44,0,2-.1,4.54-.29a10.6,10.6,0,0,0-.58,3.54,5.34,5.34,0,0,0,0,.62,5.93,5.93,0,0,1,3.07-4A2.12,2.12,0,0,1,8.22.13c.83,0,1.24.82,1.24,2.48a13.82,13.82,0,0,1-.15,1.94,10.3,10.3,0,0,1,1.3-2A3.1,3.1,0,0,1,13,1.22a2,2,0,0,1,1.56.71A2.7,2.7,0,0,1,15.19,3.76Z"/></g></g></svg>